<svg width="37" height="22" viewBox="0 0 37 22" fill="none" xmlns="http://www.w3.org/2000/svg">
<path d="M0 4C0 1.79086 1.79086 0 4 0H33C35.2091 0 37 1.79086 37 4V18C37 20.2091 35.2091 22 33 22H4C1.79086 22 0 20.2091 0 18V4Z" fill="#FFECE1"/>
<path d="M13.22 14V7H14.06V14H13.22ZM8.75 14V7H9.59V14H8.75ZM9.43 10.78V10.09H13.43V10.78H9.43ZM15.5866 14V8.96H16.4266V14H15.5866ZM16.0066 7.89C15.84 7.89 15.7 7.83667 15.5866 7.73C15.48 7.61667 15.4266 7.47667 15.4266 7.31C15.4266 7.14333 15.48 7.01 15.5866 6.91C15.7 6.80333 15.84 6.75 16.0066 6.75C16.1666 6.75 16.3033 6.80333 16.4166 6.91C16.53 7.01 16.5866 7.14333 16.5866 7.31C16.5866 7.47667 16.53 7.61667 16.4166 7.73C16.3033 7.83667 16.1666 7.89 16.0066 7.89ZM19.899 16.32C19.4457 16.32 19.0423 16.26 18.689 16.14C18.3423 16.0267 18.0723 15.85 17.879 15.61C17.6857 15.37 17.589 15.0733 17.589 14.72C17.589 14.5667 17.619 14.4033 17.679 14.23C17.7457 14.0567 17.8557 13.8867 18.009 13.72C18.169 13.5533 18.3923 13.4033 18.679 13.27L19.259 13.61C18.9057 13.7567 18.6757 13.9233 18.569 14.11C18.4623 14.3033 18.409 14.48 18.409 14.64C18.409 14.86 18.4723 15.0433 18.599 15.19C18.7257 15.3367 18.9023 15.4467 19.129 15.52C19.3557 15.5933 19.6123 15.63 19.899 15.63C20.1857 15.63 20.4323 15.59 20.639 15.51C20.8457 15.43 21.0057 15.3167 21.119 15.17C21.2323 15.0233 21.289 14.85 21.289 14.65C21.289 14.4167 21.2023 14.22 21.029 14.06C20.8557 13.9067 20.5257 13.8167 20.039 13.79C19.6457 13.7633 19.3157 13.7267 19.049 13.68C18.7823 13.6333 18.5623 13.58 18.389 13.52C18.2157 13.4533 18.069 13.38 17.949 13.3C17.8357 13.22 17.7323 13.1367 17.639 13.05V12.82L18.609 11.86L19.339 12.12L18.339 13.02L18.469 12.67C18.5423 12.7233 18.6123 12.7733 18.679 12.82C18.7457 12.8667 18.8357 12.9067 18.949 12.94C19.0623 12.9733 19.219 13.0033 19.419 13.03C19.6257 13.0567 19.8957 13.0833 20.229 13.11C20.689 13.1433 21.0557 13.2233 21.329 13.35C21.609 13.4767 21.809 13.6467 21.929 13.86C22.0557 14.0733 22.119 14.3267 22.119 14.62C22.119 14.9067 22.039 15.1767 21.879 15.43C21.7257 15.69 21.4857 15.9033 21.159 16.07C20.8323 16.2367 20.4123 16.32 19.899 16.32ZM19.889 12.42C19.469 12.42 19.109 12.34 18.809 12.18C18.5157 12.02 18.2923 11.8067 18.139 11.54C17.9857 11.2667 17.909 10.9633 17.909 10.63C17.909 10.2967 17.9857 9.99667 18.139 9.73C18.299 9.46333 18.5257 9.25 18.819 9.09C19.1123 8.92333 19.469 8.84 19.889 8.84C20.309 8.84 20.6657 8.92333 20.959 9.09C21.2523 9.25 21.4757 9.46333 21.629 9.73C21.7823 9.99667 21.859 10.2967 21.859 10.63C21.859 10.9633 21.7823 11.2667 21.629 11.54C21.4757 11.8067 21.2523 12.02 20.959 12.18C20.6657 12.34 20.309 12.42 19.889 12.42ZM19.889 11.73C20.249 11.73 20.5323 11.6367 20.739 11.45C20.9457 11.2633 21.049 10.99 21.049 10.63C21.049 10.2767 20.9457 10.0067 20.739 9.82C20.5323 9.63333 20.249 9.54 19.889 9.54C19.5357 9.54 19.249 9.63333 19.029 9.82C18.8157 10.0067 18.709 10.2767 18.709 10.63C18.709 10.99 18.8157 11.2633 19.029 11.45C19.2423 11.6367 19.529 11.73 19.889 11.73ZM20.709 9.67L20.459 8.96H22.519V9.59L20.709 9.67ZM23.4852 14V6.8H24.3252V9.81C24.4918 9.51 24.7252 9.27333 25.0252 9.1C25.3318 8.92667 25.6652 8.84 26.0252 8.84C26.4118 8.84 26.7485 8.92 27.0352 9.08C27.3218 9.23333 27.5418 9.47 27.6952 9.79C27.8485 10.11 27.9252 10.5133 27.9252 11V14H27.0952V11.09C27.0952 10.5833 26.9885 10.2033 26.7752 9.95C26.5618 9.69 26.2518 9.56 25.8452 9.56C25.5585 9.56 25.2985 9.63 25.0652 9.77C24.8385 9.91 24.6585 10.11 24.5252 10.37C24.3918 10.63 24.3252 10.95 24.3252 11.33V14H23.4852Z" fill="#FF5C00"/>
</svg>
