<svg width="35" height="22" viewBox="0 0 35 22" fill="none" xmlns="http://www.w3.org/2000/svg">
<path d="M0 4C0 1.79086 1.79086 0 4 0H31C33.2091 0 35 1.79086 35 4V18C35 20.2091 33.2091 22 31 22H4C1.79086 22 0 20.2091 0 18V4Z" fill="#F0FFDD"/>
<path d="M8.75 14V7H9.59V13.33H12.85V14H8.75ZM16.0086 14.12C15.5419 14.12 15.1219 14.0133 14.7486 13.8C14.3753 13.58 14.0819 13.2733 13.8686 12.88C13.6553 12.48 13.5486 12.0167 13.5486 11.49C13.5486 10.95 13.6553 10.4833 13.8686 10.09C14.0886 9.69 14.3853 9.38333 14.7586 9.17C15.1386 8.95 15.5619 8.84 16.0286 8.84C16.5086 8.84 16.9319 8.95 17.2986 9.17C17.6719 9.38333 17.9653 9.69 18.1786 10.09C18.3986 10.4833 18.5086 10.9467 18.5086 11.48C18.5086 12.0133 18.3986 12.48 18.1786 12.88C17.9586 13.2733 17.6619 13.58 17.2886 13.8C16.9153 14.0133 16.4886 14.12 16.0086 14.12ZM16.0186 13.4C16.3053 13.4 16.5719 13.33 16.8186 13.19C17.0653 13.0433 17.2653 12.8267 17.4186 12.54C17.5719 12.2533 17.6486 11.9 17.6486 11.48C17.6486 11.0533 17.5719 10.7 17.4186 10.42C17.2719 10.1333 17.0753 9.92 16.8286 9.78C16.5886 9.63333 16.3219 9.56 16.0286 9.56C15.7486 9.56 15.4819 9.63333 15.2286 9.78C14.9819 9.92 14.7819 10.1333 14.6286 10.42C14.4819 10.7 14.4086 11.0533 14.4086 11.48C14.4086 11.9 14.4819 12.2533 14.6286 12.54C14.7819 12.8267 14.9786 13.0433 15.2186 13.19C15.4653 13.33 15.7319 13.4 16.0186 13.4ZM20.5208 14L19.0408 8.96H19.8808L21.0308 13.21H20.8808L22.1308 8.96H23.0808L24.3508 13.2L24.1908 13.21L25.3308 8.96H26.1808L24.7108 14H23.8508L22.5308 9.56H22.7008L21.3808 14H20.5208Z" fill="#8A8A8A"/>
</svg>
