<svg width="54" height="22" viewBox="0 0 54 22" fill="none" xmlns="http://www.w3.org/2000/svg">
<path d="M0 4C0 1.79086 1.79086 0 4 0H50C52.2091 0 54 1.79086 54 4V18C54 20.2091 52.2091 22 50 22H4C1.79086 22 0 20.2091 0 18V4Z" fill="#FFECE1"/>
<path d="M8.75 14V7H9.73L12.2 11.89L14.68 7H15.67V14H14.83V8.5L12.52 13.02H11.89L9.59 8.52V14H8.75ZM19.3182 14.12C18.8449 14.12 18.4249 14.01 18.0582 13.79C17.6982 13.57 17.4149 13.2633 17.2082 12.87C17.0015 12.47 16.8982 12.0067 16.8982 11.48C16.8982 10.9467 16.9982 10.4833 17.1982 10.09C17.4049 9.69667 17.6915 9.39 18.0582 9.17C18.4315 8.95 18.8582 8.84 19.3382 8.84C19.8315 8.84 20.2482 8.95 20.5882 9.17C20.9349 9.39 21.1982 9.68 21.3782 10.04C21.5649 10.3933 21.6582 10.7833 21.6582 11.21C21.6582 11.2767 21.6582 11.3467 21.6582 11.42C21.6582 11.4933 21.6549 11.5767 21.6482 11.67H17.5282V11.02H20.8382C20.8182 10.56 20.6649 10.2 20.3782 9.94C20.0982 9.68 19.7449 9.55 19.3182 9.55C19.0315 9.55 18.7649 9.61667 18.5182 9.75C18.2782 9.87667 18.0849 10.0667 17.9382 10.32C17.7915 10.5667 17.7182 10.8767 17.7182 11.25V11.53C17.7182 11.9433 17.7915 12.29 17.9382 12.57C18.0915 12.85 18.2882 13.06 18.5282 13.2C18.7749 13.34 19.0382 13.41 19.3182 13.41C19.6715 13.41 19.9615 13.3333 20.1882 13.18C20.4215 13.02 20.5882 12.8067 20.6882 12.54H21.5182C21.4382 12.84 21.2982 13.11 21.0982 13.35C20.8982 13.59 20.6482 13.78 20.3482 13.92C20.0549 14.0533 19.7115 14.12 19.3182 14.12ZM25.0118 14.12C24.5251 14.12 24.0985 14.0067 23.7318 13.78C23.3651 13.5467 23.0818 13.23 22.8818 12.83C22.6818 12.43 22.5818 11.9767 22.5818 11.47C22.5818 10.9633 22.6818 10.5133 22.8818 10.12C23.0818 9.72 23.3651 9.40667 23.7318 9.18C24.1051 8.95333 24.5351 8.84 25.0218 8.84C25.4351 8.84 25.7951 8.92333 26.1018 9.09C26.4151 9.25667 26.6551 9.49 26.8218 9.79V6.8H27.6618V14H26.9018L26.8318 13.17C26.7251 13.3367 26.5885 13.4933 26.4218 13.64C26.2551 13.78 26.0551 13.8967 25.8218 13.99C25.5885 14.0767 25.3185 14.12 25.0118 14.12ZM25.1118 13.39C25.4451 13.39 25.7385 13.31 25.9918 13.15C26.2451 12.99 26.4418 12.77 26.5818 12.49C26.7218 12.2033 26.7918 11.8667 26.7918 11.48C26.7918 11.1 26.7218 10.7667 26.5818 10.48C26.4418 10.1933 26.2451 9.97 25.9918 9.81C25.7385 9.65 25.4451 9.57 25.1118 9.57C24.7851 9.57 24.4951 9.65 24.2418 9.81C23.9885 9.97 23.7918 10.1933 23.6518 10.48C23.5118 10.7667 23.4418 11.1 23.4418 11.48C23.4418 11.8667 23.5118 12.2033 23.6518 12.49C23.7918 12.77 23.9885 12.99 24.2418 13.15C24.4951 13.31 24.7851 13.39 25.1118 13.39ZM29.1413 14V8.96H29.9813V14H29.1413ZM29.5613 7.89C29.3947 7.89 29.2547 7.83667 29.1413 7.73C29.0347 7.61667 28.9813 7.47667 28.9813 7.31C28.9813 7.14333 29.0347 7.01 29.1413 6.91C29.2547 6.80333 29.3947 6.75 29.5613 6.75C29.7213 6.75 29.858 6.80333 29.9713 6.91C30.0847 7.01 30.1413 7.14333 30.1413 7.31C30.1413 7.47667 30.0847 7.61667 29.9713 7.73C29.858 7.83667 29.7213 7.89 29.5613 7.89ZM33.2937 14.12C32.907 14.12 32.567 14.0433 32.2737 13.89C31.987 13.7367 31.7637 13.5 31.6037 13.18C31.4503 12.86 31.3737 12.46 31.3737 11.98V8.96H32.2137V11.89C32.2137 12.39 32.3237 12.7667 32.5437 13.02C32.7637 13.2733 33.0737 13.4 33.4737 13.4C33.7537 13.4 34.007 13.3333 34.2337 13.2C34.4603 13.06 34.637 12.8633 34.7637 12.61C34.897 12.35 34.9637 12.0333 34.9637 11.66V8.96H35.8037V14H35.0437L34.9937 13.12C34.8403 13.4333 34.6137 13.68 34.3137 13.86C34.0137 14.0333 33.6737 14.12 33.2937 14.12ZM37.1961 14V8.96H37.9561L38.0061 9.68C38.1661 9.42 38.3794 9.21667 38.6461 9.07C38.9194 8.91667 39.2161 8.84 39.5361 8.84C39.7961 8.84 40.0294 8.87667 40.2361 8.95C40.4494 9.01667 40.6361 9.12333 40.7961 9.27C40.9561 9.41 41.0861 9.59 41.1861 9.81C41.3594 9.50333 41.5961 9.26667 41.8961 9.1C42.2028 8.92667 42.5294 8.84 42.8761 8.84C43.2628 8.84 43.5994 8.92 43.8861 9.08C44.1794 9.23333 44.4028 9.47 44.5561 9.79C44.7161 10.1033 44.7961 10.5033 44.7961 10.99V14H43.9661V11.08C43.9661 10.5733 43.8628 10.1933 43.6561 9.94C43.4494 9.68667 43.1594 9.56 42.7861 9.56C42.5261 9.56 42.2928 9.63 42.0861 9.77C41.8794 9.90333 41.7161 10.1 41.5961 10.36C41.4761 10.62 41.4161 10.94 41.4161 11.32V14H40.5761V11.08C40.5761 10.5733 40.4728 10.1933 40.2661 9.94C40.0594 9.68667 39.7661 9.56 39.3861 9.56C39.1328 9.56 38.9028 9.63 38.6961 9.77C38.4961 9.90333 38.3361 10.1 38.2161 10.36C38.0961 10.62 38.0361 10.94 38.0361 11.32V14H37.1961Z" fill="#FF00B8"/>
</svg>
